# AST/ASF file generated using VICON BodyLanguage
# -----------------------------------------------
:version 1.10
:name VICON
:units
  mass 1.0
  length 0.45
  angle deg
:documentation
   .ast/.asf automatically generated from VICON data using
   VICON BodyBuilder and BodyLanguage model FoxedUp or BRILLIANT.MOD
:root
   order TX TY TZ RX RY RZ
   axis XYZ
   position 0 0 0  
   orientation 0 0 0 
:bonedata
  begin
     id 1 
     name lhipjoint
     direction 0.630305 -0.712092 0.309259 
     length 2.29033 
     axis 0 0 0  XYZ
  end
  begin
     id 2 
     name lfemur
     direction 0.34202 -0.939693 0  
     length 6.43538  
     axis 0 0 20  XYZ
    dof rx ry rz
    limits (-160.0 20.0)
           (-70.0 70.0)
           (-60.0 70.0)
  end
  begin
     id 3 
     name ltibia
     direction 0.34202 -0.939693 0   
     length 7.43097   
     axis 0 0 20   XYZ
    dof rx
    limits (-10.0 170.0)
  end
  begin
     id 4 
     name lfoot
     direction 0.0334653 -0.0919451 0.995202   
     length 1.78438   
     axis -90 7.62852e-016 20   XYZ
    dof rx rz
    limits (-45.0 90.0)
           (-70.0 20.0)
  end
  begin
     id 5 
     name ltoes
     direction 1.53535e-011 -4.21933e-011 1   
     length 0.90832   
     axis -90 7.62852e-016 20   XYZ
    dof rx
    limits (-90.0 20.0)
  end
  begin
     id 6 
     name rhipjoint
     direction -0.682059 -0.67077 0.291312   
     length 2.43143  
     axis 0 0 0  XYZ 
  end
  begin
     id 7 
     name rfemur
     direction -0.34202 -0.939693 0   
     length 6.63488   
     axis 0 0 -20   XYZ
    dof rx ry rz
    limits (-160.0 20.0)
           (-70.0 70.0)
           (-70.0 60.0)
  end
  begin
     id 8 
     name rtibia
     direction -0.34202 -0.939693 0   
     length 6.86532   
     axis 0 0 -20   XYZ
    dof rx
    limits (-10.0 170.0)
 end
 begin
     id 9 
     name rfoot
     direction -0.105199 -0.289033 0.951521   
     length 1.77126  
     axis -90 -7.62852e-016 -20   XYZ
    dof rx rz
    limits (-45.0 90.0)
           (-20.0 70.0)
  end
  begin
     id 10 
     name rtoes
     direction -1.53551e-011 -4.21978e-011 1   
     length 0.889273   
     axis -90 -7.62852e-016 -20   XYZ
    dof rx
    limits (-90.0 20.0)
  end
  begin
     id 11 
     name lowerback
     direction -0.0514305 0.998089 0.034245   
     length 2.02077   
     axis 0 0 0   XYZ
    dof rx ry rz
    limits (-20.0 45.0)
           (-30.0 30.0)
           (-30.0 30.0)
  end
  begin
     id 12 
     name upperback
     direction 0.0203189 0.999449 -0.0262315   
     length 2.01413   
     axis 0 0 0   XYZ
    dof rx ry rz
    limits (-20.0 45.0)
           (-30.0 30.0)
           (-30.0 30.0)
  end
  begin
     id 13 
     name thorax
     direction 0.0452736 0.998142 -0.0407729   
     length 2.02986   
     axis 0 0 0   XYZ
    dof rx ry rz
    limits (-20.0 45.0)
           (-30.0 30.0)
           (-30.0 30.0)
  end
  begin
     id 14 
     name lowerneck
     direction -0.0180464 0.999645 -0.0195774   
     length 1.59034   
     axis 0 0 0   XYZ
    dof rx ry rz
    limits (-20.0 45.0)
           (-30.0 30.0)
           (-30.0 30.0)
  end
  begin
     id 15 
     name upperneck
     direction 0.0732272 0.979935 -0.18538   
     length 1.57486   
     axis 0 0 0   XYZ
    dof rx ry rz
    limits (-20.0 45.0)
           (-30.0 30.0)
           (-30.0 30.0)
  end
  begin
     id 16
     name head
     direction 0.0252963 0.997909 -0.059472  
     length 1.60334  
     axis 0 0 0   XYZ
    dof rx ry rz
    limits (-20.0 45.0)
           (-30.0 30.0)
           (-30.0 30.0)
  end
  begin
     id 17 
     name lclavicle
     direction 0.943819 0.330449 0.00315172  
     length 3.50322  
     axis 0 0 0   XYZ
    dof ry rz
    limits (-20.0 10.0)
           (0.0 20.0)
  end
  begin
     id 18 
     name lhumerus
     direction 1 -4.48949e-011 2.22502e-028   
     length 4.63208   
     axis 180 -30 -90   XYZ
    dof rx ry rz
    limits (-60.0 90.0)
           (-90.0 90.0)
           (-90.0 90.0)
  end
  begin
     id 19
     name lradius
     direction 1 -4.48967e-011 -4.10197e-027   
     length 3.41924   
     axis 180 -30 -90   XYZ
    dof rx
    limits (-10.0 170.0)
  end
  begin
     id 20
     name lwrist
     direction 1 -4.48987e-011 -1.24264e-027   
     length 1.70962   
     axis 2.50585e-015 90 90   XYZ
    dof ry
    limits (-180.0 0.0)
 end
  begin
     id 21 
     name lhand
     direction 1 -4.48983e-011 -2.48528e-027   
     length 0.62537   
     axis 1.58582e-015 90 90   XYZ
    dof rx rz
    limits (-90.0 90.0)
           (-45.0 45.0)
  end
  begin
     id 22 
     name lfingers
     direction 1 -4.48896e-011 -4.97056e-027   
     length 0.50419   
     axis 3.17164e-015 90 90   XYZ
    dof rx
    limits (0.0 90.0)
  end
  begin
     id 23
     name lthumb
     direction 0.707107 -6.34803e-011 0.707107   
     length 0.723919   
     axis -90 45 2.85299e-015   XYZ
    dof rx rz
    limits (-45.0 45.0)
           (-45.0 45.0)
  end
  begin
     id 24 
     name rclavicle
     direction -0.964499 0.260664 -0.0423695   
     length 3.91997  
     axis 0 0 0   XYZ 
    dof ry rz
    limits (-10.0 20.0)
           (-20.0 0.0)
  end
  begin
     id 25 
     name rhumerus
     direction -1 -4.48957e-011 -1.98656e-027  
     length 4.4064   
     axis 180 30 90   XYZ
    dof rx ry rz
    limits (-90.0 60.0)
           (-90.0 90.0)
           (-90.0 90.0)
  end
  begin
     id 26 
     name rradius
     direction -1 -4.48968e-011 1.96972e-027   
     length 3.44675   
     axis 180 30 90   XYZ
    dof rx
    limits (-10.0 170.0)
  end
  begin
     id 27 
     name rwrist
     direction -1 -4.48974e-011 -1.24264e-027   
     length 1.72338   
     axis 2.50585e-015 -90 -90   XYZ
    dof ry
    limits (-180.0 0.0)
  end
  begin
     id 28
     name rhand
     direction -1 -4.48901e-011 -2.48528e-027   
     length 0.513674   
     axis 1.58582e-015 -90 -90   XYZ
    dof rx rz
    limits (-90.0 90.0)
           (-45.0 45.0)
  end
  begin
     id 29
     name rfingers
     direction -1 -4.48946e-011 -4.97056e-027   
     length 0.414137   
     axis 3.17164e-015 -90 -90   XYZ
    dof rx
    limits (0.0 90.0)
  end
  begin
     id 30
     name rthumb
     direction -0.707107 -6.34859e-011 0.707107   
     length 0.59462   
     axis -90 -45 -2.85299e-015   XYZ
    dof rx rz
    limits (-45.0 45.0)
           (-45.0 45.0)
  end
:hierarchy
  begin
    root lhipjoint rhipjoint lowerback
    lhipjoint lfemur
    lfemur ltibia
    ltibia lfoot
    lfoot ltoes
    rhipjoint rfemur
    rfemur rtibia
    rtibia rfoot
    rfoot rtoes
    lowerback upperback
    upperback thorax
    thorax lowerneck lclavicle rclavicle
    lowerneck upperneck
    upperneck head
    lclavicle lhumerus
    lhumerus lradius
    lradius lwrist
    lwrist lhand lthumb
    lhand lfingers
    rclavicle rhumerus
    rhumerus rradius
    rradius rwrist
    rwrist rhand rthumb
    rhand rfingers
  end

#!OML:ASF E:\inclinewalkrobotboard\Project 1\Capture day 1\Session 1\subject1.ASF
:FULLY-SPECIFIED
:DEGREES
240
root 9.54636 16.4814 0.624355 -137.341 -53.5688 -200.172
lowerback 7.23778 1.88242 3.20893
upperback 0.618525 2.76664 2.08
thorax -3.36691 1.3103 0.0757173
lowerneck -1.02662 3.47111 -1.61239
upperneck -9.04783 3.32338 -12.1691
head -2.56212 1.84655 -3.80647
rclavicle -4.92986e-014 -5.40694e-014
rhumerus -16.8949 42.8796 -102.856
rradius 96.6115
rwrist 5.68174
rhand -19.7398 -33.9619
rfingers 7.12502
rthumb 6.59101 -63.8393
lclavicle -4.92986e-014 -5.40694e-014
lhumerus -48.7173 44.4617 39.7417
lradius 53.6577
lwrist 41.0829
lhand -53.4502 -31.7656
lfingers 7.12502
lthumb -25.8969 -3.50922
rfemur -40.0626 3.58579 -3.25548
rtibia 24.3653
rfoot -12.5857 -3.78316
rtoes -32.9897
lfemur -9.66158 -11.0816 -8.38705
ltibia 8.42025
lfoot -37.534 17.21
ltoes 23.5335
241
root 9.54047 16.4791 0.629697 -137.153 -53.7375 -200.422
lowerback 7.18864 2.01837 3.30782
upperback 0.615594 2.9517 1.98243
thorax -3.32848 1.40157 -0.0961176
lowerneck -1.8144 4.29591 -1.01273
upperneck -8.20027 4.55478 -12.9922
head -2.02743 2.40351 -4.16334
rclavicle -4.13472e-014 7.95139e-014
rhumerus -16.7804 42.3499 -102.69
rradius 96.6112
rwrist 5.7888
rhand -19.7631 -33.489
rfingers 7.12502
rthumb 6.56849 -63.3671
lclavicle -4.13472e-014 7.95139e-014
lhumerus -47.9842 44.2162 40.2876
lradius 53.4086
lwrist 40.9198
lhand -53.4737 -31.4263
lfingers 7.12502
lthumb -25.9194 -3.17321
rfemur -39.9464 3.4046 -3.33685
rtibia 24.3986
rfoot -12.6723 -3.74727
rtoes -32.1115
lfemur -9.73957 -11.1377 -8.43995
ltibia 8.46997
lfoot -37.4704 17.1231
ltoes 23.7476
242
root 9.53665 16.4763 0.625038 -137.349 -53.644 -200.536
lowerback 7.41436 2.23162 3.13186
upperback 0.693688 3.22625 1.89175
thorax -3.3716 1.53979 -0.125725
lowerneck -1.68604 5.24776 -0.613008
upperneck -8.09608 5.82438 -13.8316
head -1.89273 3.04358 -4.53842
rclavicle 2.70347e-014 6.04305e-014
rhumerus -16.7768 41.9569 -102.673
rradius 96.6366
rwrist 5.6286
rhand -19.8564 -33.4099
rfingers 7.12502
rthumb 6.47846 -63.2908
lclavicle 2.70347e-014 6.04305e-014
lhumerus -47.3175 44.0053 40.7408
lradius 53.1698
lwrist 40.8367
lhand -53.2486 -31.0933
lfingers 7.12502
lthumb -25.7039 -2.8089
rfemur -39.6472 3.60659 -3.45295
rtibia 24.4122
rfoot -12.734 -3.7073
rtoes -31.6025
lfemur -9.29118 -11.1308 -8.65196
ltibia 8.32648
lfoot -37.4849 17.0011
ltoes 23.9813
243
root 9.53553 16.4759 0.612755 -137.727 -53.5236 -200.425
lowerback 7.65899 2.45122 2.90242
upperback 0.77051 3.50546 1.88141
thorax -3.43538 1.68023 -0.0455635
lowerneck -1.47103 6.13653 -0.401356
upperneck -8.07481 6.996 -14.6105
head -1.80013 3.64383 -4.86156
rclavicle -6.20208e-014 3.18055e-015
rhumerus -16.7722 41.7401 -102.655
rradius 96.6199
rwrist 5.45432
rhand -20.5904 -33.8006
rfingers 7.12502
rthumb 5.76978 -63.7021
lclavicle -6.20208e-014 3.18055e-015
lhumerus -46.9317 43.912 41.0918
lradius 53.0977
lwrist 40.8179
lhand -53.0842 -31.0399
lfingers 7.12502
lthumb -25.5464 -2.73285
rfemur -39.3838 3.97474 -3.42404
rtibia 24.4411
rfoot -12.7867 -3.84947
rtoes -32.4765
lfemur -8.77186 -11.0401 -8.7248
ltibia 8.09469
lfoot -37.5571 16.9795
ltoes 23.9532
244
root 9.53073 16.4771 0.607306 -137.793 -53.6026 -200.41
lowerback 7.67677 2.63458 2.87486
upperback 0.769612 3.74735 1.86776
thorax -3.44237 1.80043 -0.0696459
lowerneck -1.34015 6.85152 -0.273691
upperneck -8.07755 7.92779 -15.526
head -1.51247 4.14816 -4.65275
rclavicle -5.725e-014 3.81667e-014
rhumerus -16.8628 41.3882 -102.619
rradius 96.6026
rwrist 5.80498
rhand -20.9593 -33.6915
rfingers 7.12502
rthumb 5.41366 -63.6023
lclavicle -5.725e-014 3.81667e-014
lhumerus -46.5221 43.808 41.5762
lradius 53.1022
lwrist 40.7272
lhand -53.1166 -31.2121
lfingers 7.12502
lthumb -25.5774 -2.90948
rfemur -39.2652 4.03323 -3.37299
rtibia 24.4692
rfoot -12.8643 -3.92151
rtoes -33.0198
lfemur -8.65804 -11.0148 -8.67612
ltibia 7.99856
lfoot -37.44 17.2609
ltoes 23.6019
245
root 9.52288 16.4777 0.608707 -137.635 -53.799 -200.523
lowerback 7.55882 2.78598 2.96815
upperback 0.744143 3.95204 1.81983
thorax -3.38918 1.90172 -0.185886
lowerneck -1.33472 7.55113 -0.203331
upperneck -7.84176 8.90081 -16.0557
head -1.33685 4.63156 -4.80482
rclavicle 4.77083e-015 -6.36111e-014
rhumerus -17.0148 40.9834 -102.572
rradius 96.7357
rwrist 5.99533
rhand -20.5479 -33.1392
rfingers 7.12502
rthumb 5.81083 -63.0396
lclavicle 4.77083e-015 -6.36111e-014
lhumerus -45.9915 43.6409 42.1964
lradius 53.1434
lwrist 40.6095
lhand -53.1062 -31.6189
lfingers 7.12502
lthumb -25.5675 -3.31482
rfemur -39.2142 3.89532 -3.37179
rtibia 24.4751
rfoot -12.9468 -3.90208
rtoes -32.5845
lfemur -8.78754 -11.0462 -8.61009
ltibia 8.03201
lfoot -37.1157 17.7787
ltoes 23.0654
246
root 9.51541 16.4783 0.611266 -137.425 -53.9708 -200.685
lowerback 7.47202 2.88111 3.03052
upperback 0.716674 4.08061 1.74218
thorax -3.35627 1.96568 -0.309145
lowerneck -1.29643 8.30975 0.12612
upperneck -7.65695 9.9387 -16.8751
head -1.13841 5.14661 -5.07956
rclavicle -9.54166e-015 -7.63333e-014
rhumerus -17.1309 40.8324 -102.518
rradius 96.9343
rwrist 5.82533
rhand -20.1593 -33.7376
rfingers 7.12502
rthumb 6.18599 -63.6273
lclavicle -9.54166e-015 -7.63333e-014
lhumerus -45.5449 43.5045 42.6461
lradius 53.189
lwrist 40.523
lhand -53.1029 -31.8032
lfingers 7.12502
lthumb -25.5643 -3.49866
rfemur -39.1822 3.79385 -3.44248
rtibia 24.4773
rfoot -13.0489 -3.95213
rtoes -32.0047
lfemur -8.94221 -11.1415 -8.58837
ltibia 8.06866
lfoot -37.0115 17.9025
ltoes 22.9865
247
root 9.5061 16.48 0.616231 -137.218 -54.1557 -200.907
lowerback 7.47007 2.96258 3.13426
upperback 0.679749 4.19754 1.61665
thorax -3.37364 2.02239 -0.508239
lowerneck -1.08676 8.93203 0.872549
upperneck -7.58557 10.7739 -17.8826
head -0.970317 5.56696 -5.48405
rclavicle -6.52014e-014 -4.77083e-014
rhumerus -17.1749 40.5997 -102.404
rradius 97.0586
rwrist 5.83779
rhand -20.3794 -34.6687
rfingers 7.12502
rthumb 5.97356 -64.5645
lclavicle -6.52014e-014 -4.77083e-014
lhumerus -45.0637 43.2831 43.0267
lradius 53.2252
lwrist 40.4321
lhand -53.274 -31.282
lfingers 7.12502
lthumb -25.7282 -3.00112
rfemur -39.0755 3.62831 -3.54959
rtibia 24.4853
rfoot -13.1295 -3.97376
rtoes -31.4624
lfemur -9.03778 -11.4044 -8.61764
ltibia 8.06559
lfoot -37.2307 17.5533
ltoes 23.5332
248
root 9.49548 16.4817 0.618073 -137.242 -54.3606 -200.976
lowerback 7.5438 3.11534 3.29812
upperback 0.661555 4.416 1.53101
thorax -3.40821 2.12746 -0.713119
lowerneck -0.805598 9.42545 1.14646
upperneck -7.59122 11.4413 -18.3272
head -0.908076 5.9173 -5.6552
rclavicle 6.67916e-014 -3.18055e-014
rhumerus -17.2614 40.0035 -102.361
rradius 97.1008
rwrist 5.99288
rhand -20.9814 -35.2948
rfingers 7.12502
rthumb 5.39228 -65.2062
lclavicle 6.67916e-014 -3.18055e-014
lhumerus -44.4283 42.9254 43.5976
lradius 53.1845
lwrist 40.3474
lhand -53.3645 -30.9686
lfingers 7.12502
lthumb -25.8149 -2.70026
rfemur -38.8119 3.78506 -3.58161
rtibia 24.3835
rfoot -13.1571 -4.22902
rtoes -31.4729
lfemur -8.95662 -11.5753 -8.56544
ltibia 7.99942
lfoot -37.2618 17.4934
ltoes 23.7601
